<?xml version="1.0" encoding="UTF-8"?>
<svg id="Warstwa_1" data-name="Warstwa 1" xmlns="http://www.w3.org/2000/svg" viewBox="0 0 7940.34 7940.34">
  <defs>
    <style>
      .cls-1 {
        fill: none;
      }

      .cls-1, .cls-2 {
        stroke-width: 0px;
      }

      .cls-2 {
        fill: #1d1d1b;
      }
    </style>
  </defs>
  <path class="cls-1" d="M1227.15,5470.86c0-38.18-11.27-67.42-33.7-87.65-18.01-17.96-43.81-26.96-77.52-26.96-40.45,0-69.67,9.01-87.63,26.96-20.22,20.23-30.33,47.19-30.33,80.89,0,20.23,12.32,41.61,37.07,64.05,24.7,22.48,61.77,42.71,111.22,60.66,53.93-26.96,80.89-66.24,80.89-117.96Z"/>
  <path class="cls-1" d="M1308.3,2064.13c-15.74-13.48-32.6-20.22-50.55-20.22s-34.86,6.74-50.55,20.22c-40.45,40.45-60.67,120.23-60.67,239.29s20.22,202.23,60.67,242.67c15.69,13.48,32.54,20.22,50.55,20.22s34.81-6.74,50.55-20.22c38.18-38.18,57.3-119.07,57.3-242.67s-19.12-201.06-57.3-239.29Z"/>
  <path class="cls-1" d="M984.48,5767.44c0,35.97,12.32,65.21,37.07,87.63,20.22,20.23,49.4,30.33,87.63,30.33,40.45,0,69.62-8.95,87.63-26.96,22.43-20.21,33.7-51.65,33.7-94.36,0-24.69-12.38-49.4-37.07-74.15-29.23-29.18-70.78-53.93-124.7-74.13-56.19,38.22-84.26,88.78-84.26,151.66Z"/>
  <path class="cls-1" d="M3992.13,7526.86c24.69,0,44.92-7.85,60.66-23.59,24.7-22.44,37.08-72.98,37.08-151.66,0-49.4-11.27-85.37-33.71-107.85-18.01-17.96-38.23-26.96-60.66-26.96-51.71,0-95.53,41.59-131.45,124.69,0,80.89,17.97,134.82,53.93,161.78,20.23,15.74,44.92,23.59,74.15,23.59Z"/>
  <polygon class="cls-1" points="6823.38 5416.93 6631.27 5720.27 6826.75 5720.27 6826.75 5416.93 6823.38 5416.93"/>
  <path class="cls-1" d="M736.72,3735.99c-18.01-17.96-43.82-26.96-77.52-26.96-26.96,0-47.19,6.75-60.67,20.23-29.23,26.96-43.81,71.93-43.81,134.82s11.21,105.63,33.7,128.07c20.22,20.23,40.45,30.33,60.67,30.33,24.7,0,50.55-13.47,77.52-40.44,35.92-35.92,53.93-69.63,53.93-101.11,0-69.62-14.64-117.97-43.81-144.93Z"/>
  <path class="cls-2" d="M1732.32,7073.42c-5.47-3.97-10.94-7.91-16.39-11.9l-77.88,107.19,16.38,11.9,77.88-107.19Z"/>
  <path class="cls-2" d="M5149.91,7616.01l40.71,125.28,19.25-6.26-40.71-125.27c-6.41,2.09-12.83,4.18-19.25,6.25Z"/>
  <path class="cls-2" d="M4365.94,7779.63l13.85,131.7,20.14-2.11-13.86-131.74c-6.71.72-13.41,1.48-20.13,2.15Z"/>
  <path class="cls-2" d="M882.54,6228.06c-3.99-5.45-7.93-10.92-11.89-16.39l-107.21,77.88,11.9,16.38,107.2-77.87Z"/>
  <path class="cls-2" d="M4762.24,7718.43l27.46,129.17,19.81-4.21-27.46-129.15c-6.6,1.42-13.2,2.81-19.81,4.19Z"/>
  <path class="cls-2" d="M7917.6,4373.87l-131.71-13.87c-.69,6.73-1.44,13.41-2.15,20.13l131.75,13.87,2.11-20.13Z"/>
  <path class="cls-2" d="M35.16,4392.54l131.75-13.82c-.71-6.71-1.47-13.4-2.16-20.13l-131.7,13.82,2.11,20.13Z"/>
  <path class="cls-2" d="M32.97,3564.11l131.7,13.87c.68-6.72,1.44-13.42,2.15-20.13l-131.73-13.87-2.12,20.14Z"/>
  <path class="cls-2" d="M96.74,3154.21l129.16,27.48c1.38-6.61,2.77-13.21,4.18-19.8l-129.12-27.47-4.21,19.8Z"/>
  <path class="cls-2" d="M6828.22,1414.14l98.65-88.82-13.55-15.05-98.63,88.8c4.52,5,9.03,10.03,13.53,15.07Z"/>
  <path class="cls-2" d="M203.1,2753.27l125.28,40.73c2.07-6.43,4.15-12.85,6.25-19.26l-125.27-40.72-6.26,19.26Z"/>
  <path class="cls-2" d="M230.24,4774.71c-1.42-6.6-2.81-13.2-4.18-19.82l-129.15,27.43,4.2,19.81,129.13-27.42Z"/>
  <path class="cls-2" d="M479.66,5535.84c-2.77-6.15-5.49-12.33-8.23-18.49l-120.43,53.6,8.23,18.49,120.43-53.6Z"/>
  <path class="cls-2" d="M334.85,5161.86c-2.1-6.41-4.18-12.82-6.25-19.25l-125.28,40.68,6.26,19.25,125.27-40.68Z"/>
  <path class="cls-2" d="M7470.93,2402.12c2.76,6.16,5.49,12.33,8.22,18.5l120.42-53.59-8.23-18.5-120.41,53.59Z"/>
  <path class="cls-2" d="M7915.41,3545.42l-131.75,13.82c.72,6.72,1.47,13.41,2.16,20.14l131.7-13.82-2.11-20.14Z"/>
  <path class="cls-2" d="M7068.44,6229.23l107.21,77.9,11.9-16.38-107.21-77.9c-3.96,5.46-7.91,10.93-11.9,16.38Z"/>
  <path class="cls-2" d="M6927.35,6613.72l-98.66-88.84c-4.5,5.02-9,10.06-13.53,15.07l98.64,88.82,13.55-15.05Z"/>
  <path class="cls-2" d="M6530.91,6822.62l88.85,98.69,15.05-13.55-88.83-98.66c-5,4.53-10.04,9.02-15.07,13.52Z"/>
  <path class="cls-2" d="M2426.6,7472.69c-6.17-2.73-12.34-5.47-18.49-8.23l-53.61,120.42,18.49,8.23,53.61-120.42Z"/>
  <path class="cls-2" d="M1420.2,6821.67c-5.02-4.5-10.06-9-15.07-13.53l-88.81,98.64,15.05,13.55,88.83-98.66Z"/>
  <path class="cls-2" d="M7615.73,2776.09c2.1,6.41,4.19,12.83,6.26,19.26l125.26-40.68-6.26-19.26-125.26,40.68Z"/>
  <path class="cls-2" d="M7720.34,3163.26c1.41,6.6,2.8,13.2,4.18,19.81l129.14-27.43-4.21-19.8-129.12,27.42Z"/>
  <path class="cls-2" d="M6218.85,7074.24l77.89,107.21,16.38-11.9-77.88-107.2c-5.45,3.99-10.92,7.93-16.39,11.89Z"/>
  <path class="cls-2" d="M7747.47,5184.68l-125.27-40.72c-2.07,6.43-4.15,12.84-6.26,19.25l125.27,40.72,6.26-19.25Z"/>
  <path class="cls-2" d="M3585.35,7779.48c-6.72-.68-13.42-1.44-20.13-2.15l-13.84,131.77,20.14,2.11,13.83-131.73Z"/>
  <path class="cls-2" d="M2801.33,7615.56c-6.43-2.07-12.84-4.16-19.26-6.26l-40.69,125.27,19.26,6.26,40.69-125.27Z"/>
  <path class="cls-2" d="M3189.03,7718.14c-6.61-1.38-13.22-2.77-19.81-4.18l-27.44,129.13,19.81,4.2,27.44-129.15Z"/>
  <path class="cls-2" d="M5524.65,7473.26l53.63,120.45,18.49-8.23-53.63-120.44c-6.16,2.76-12.33,5.49-18.49,8.22Z"/>
  <path class="cls-2" d="M7853.82,4783.74l-129.16-27.48c-1.37,6.62-2.77,13.22-4.17,19.82l129.12,27.47,4.21-19.81Z"/>
  <path class="cls-2" d="M7471.21,5537.13l120.43,53.64,8.23-18.49-120.43-53.64c-2.74,6.17-5.47,12.35-8.23,18.49Z"/>
  <path class="cls-2" d="M1122.37,6523.81l-98.67,88.83,13.55,15.05,98.64-88.81c-4.53-5-9.02-10.03-13.53-15.07Z"/>
  <path class="cls-2" d="M5523.97,465.27c6.18,2.74,12.35,5.47,18.5,8.23l53.61-120.42-18.49-8.24-53.62,120.43Z"/>
  <path class="cls-2" d="M6530.38,1116.28c5.03,4.5,10.06,9,15.07,13.53l88.81-98.63-15.05-13.55-88.83,98.65Z"/>
  <path class="cls-2" d="M5149.26,322.41c6.43,2.07,12.84,4.16,19.26,6.26l40.69-125.29-19.25-6.26-40.71,125.29Z"/>
  <path class="cls-2" d="M6218.27,864.54c5.46,3.96,10.94,7.91,16.38,11.9l77.87-107.18-16.38-11.9-77.87,107.18Z"/>
  <path class="cls-2" d="M1731.72,863.72l-77.9-107.22-16.38,11.9,77.9,107.22c5.45-3.99,10.92-7.94,16.39-11.89Z"/>
  <path class="cls-2" d="M4761.55,219.83c6.61,1.38,13.21,2.78,19.82,4.19l27.43-129.13-19.81-4.21-27.44,129.15Z"/>
  <path class="cls-2" d="M4365.26,158.5c6.72.68,13.41,1.44,20.12,2.16l13.84-131.77-20.13-2.11-13.83,131.72Z"/>
  <path class="cls-2" d="M2425.95,464.69l-53.63-120.44-18.49,8.24,53.62,120.42c6.16-2.76,12.33-5.49,18.5-8.23Z"/>
  <path class="cls-2" d="M1419.67,1115.33l-88.84-98.67-15.05,13.55,88.82,98.65c5-4.53,10.03-9.02,15.06-13.53Z"/>
  <path class="cls-2" d="M2800.66,321.96l-40.71-125.28-19.26,6.26,40.71,125.27c6.41-2.1,12.83-4.19,19.26-6.25Z"/>
  <path class="cls-2" d="M3188.33,219.54l-27.47-129.16-19.8,4.21,27.46,129.12c6.6-1.41,13.2-2.8,19.81-4.18Z"/>
  <path class="cls-2" d="M1023.23,1324.25l98.66,88.84c4.5-5.03,9-10.06,13.53-15.07l-98.63-88.82-13.55,15.05Z"/>
  <path class="cls-2" d="M882.13,1708.74l-107.21-77.91-11.9,16.38,107.21,77.91c3.96-5.47,7.91-10.94,11.89-16.39Z"/>
  <path class="cls-2" d="M3584.63,158.35l-13.86-131.73-20.14,2.12,13.86,131.76c6.71-.71,13.41-1.47,20.13-2.15Z"/>
  <path class="cls-2" d="M7068.03,1709.88c3.99,5.45,7.94,10.92,11.89,16.39l107.21-77.87-11.9-16.38-107.2,77.87Z"/>
  <path class="cls-2" d="M479.36,2400.82l-120.42-53.64-8.24,18.49,120.44,53.64c2.73-6.17,5.46-12.35,8.23-18.5Z"/>
  <path class="cls-2" d="M3896.45,73.73c0,40.7,33.01,73.72,73.72,73.72s73.73-33.01,73.73-73.72S4010.89,0,3970.17,0s-73.72,33.01-73.72,73.73Z"/>
  <path class="cls-2" d="M4043.9,7866.62c0-40.72-33.01-73.72-73.73-73.72s-73.72,33-73.72,73.72,33.01,73.72,73.72,73.72,73.73-33,73.73-73.72Z"/>
  <path class="cls-2" d="M2058.82,659.6c35.25-20.36,47.34-65.46,26.98-100.7-20.36-35.28-65.45-47.35-100.7-26.99-35.26,20.36-47.35,65.44-26.98,100.72,20.35,35.24,65.44,47.33,100.71,26.97Z"/>
  <path class="cls-2" d="M5881.53,7280.76c-35.25,20.35-47.34,65.45-26.98,100.7,20.37,35.25,65.45,47.33,100.71,26.96,35.26-20.35,47.34-65.43,26.98-100.7-20.36-35.25-65.45-47.33-100.71-26.96Z"/>
  <path class="cls-2" d="M659.59,2058.82c20.36-35.26,8.28-80.36-26.98-100.72-35.26-20.36-80.35-8.27-100.7,26.98-20.37,35.27-8.28,80.36,26.98,100.71,35.25,20.36,80.35,8.28,100.7-26.97Z"/>
  <path class="cls-2" d="M7280.75,5881.53c-20.36,35.27-8.28,80.35,26.97,100.7,35.27,20.39,80.35,8.29,100.71-26.96,20.36-35.27,8.28-80.35-26.97-100.72-35.26-20.37-80.35-8.27-100.71,26.98Z"/>
  <path class="cls-2" d="M73.72,4043.89c40.72,0,73.72-33,73.73-73.71-.01-40.71-33.02-73.72-73.73-73.72S0,3929.46,0,3970.17c0,40.72,33.01,73.72,73.72,73.72Z"/>
  <path class="cls-2" d="M7940.34,3970.18c0-40.71-33-73.72-73.74-73.74-40.69,0-73.72,33.03-73.7,73.74,0,40.71,32.98,73.71,73.7,73.71s73.74-33,73.74-73.71Z"/>
  <path class="cls-2" d="M659.6,5881.53c-20.36-35.25-65.46-47.33-100.71-26.96-35.26,20.35-47.35,65.42-26.99,100.68,20.35,35.27,65.45,47.35,100.71,26.98,35.26-20.35,47.34-65.45,26.99-100.7Z"/>
  <path class="cls-2" d="M7307.72,1958.1c-35.25,20.36-47.33,65.47-26.97,100.7,20.36,35.27,65.44,47.35,100.71,26.99,35.25-20.35,47.33-65.44,26.97-100.7-20.36-35.26-65.44-47.35-100.71-26.99Z"/>
  <path class="cls-2" d="M2058.82,7280.74c-35.27-20.35-80.36-8.27-100.72,26.98-20.35,35.27-8.27,80.35,26.98,100.7,35.26,20.39,80.36,8.29,100.71-26.98,20.36-35.25,8.27-80.35-26.97-100.7Z"/>
  <path class="cls-2" d="M5881.53,659.59c35.26,20.36,80.34,8.28,100.71-26.98,20.36-35.26,8.26-80.34-26.99-100.7-35.25-20.36-80.33-8.29-100.72,26.99-20.35,35.24-8.25,80.34,27,100.69Z"/>
  <path class="cls-2" d="M3786.72,860.21v-502.18h-13.48c-18.01,35.97-52.82,53.93-104.48,53.93h-30.33v20.23h60.67c22.43,0,33.7,10.1,33.7,30.33v397.7c0,35.97-21.38,53.93-64.04,53.93h-30.33v20.23h246.03v-20.23h-33.7c-42.71,0-64.04-17.96-64.04-53.93Z"/>
  <path class="cls-2" d="M4102.89,701.81c-85.41,83.15-138.18,146.09-158.4,188.73v43.82h313.45l20.22-144.93h-20.22c-11.27,62.92-37.08,94.37-77.52,94.37h-198.85c11.22-29.18,82-106.7,212.33-232.56,51.67-49.39,77.52-99.95,77.52-151.67,0-40.44-13.48-74.14-40.45-101.11-26.96-26.96-66.3-40.44-117.97-40.44-47.18,0-87.63,15.74-121.32,47.19-24.75,24.75-37.08,57.3-37.08,97.73,0,18.02,4.47,31.5,13.48,40.46,6.74,6.74,16.85,10.1,30.33,10.1,22.43,0,33.7-11.22,33.7-33.7,0-11.22-3.37-20.23-10.1-26.96-9.01-8.95-13.48-20.23-13.48-33.7,0-20.23,6.74-37.08,20.22-50.56,20.23-17.96,46.03-26.96,77.52-26.96s56.14,9.01,74.14,26.96c22.43,20.23,33.7,52.81,33.7,97.74,0,58.45-37.07,123.6-111.22,195.48Z"/>
  <path class="cls-2" d="M2257.55,1386.32v-20.22h-33.7c-42.71,0-64.04-17.96-64.04-53.93v-502.18h-13.48c-18.01,35.97-52.82,53.93-104.48,53.93h-30.33v20.22h60.67c22.43,0,33.7,10.12,33.7,30.33v397.71c0,35.97-21.38,53.93-64.04,53.93h-30.33v20.22h246.03Z"/>
  <path class="cls-2" d="M2658.35,1386.32v-20.22h-33.7c-42.71,0-64.04-17.96-64.04-53.93v-502.18h-13.48c-18.01,35.97-52.82,53.93-104.48,53.93h-30.33v20.22h60.67c22.43,0,33.7,10.12,33.7,30.33v397.71c0,35.97-21.38,53.93-64.04,53.93h-30.33v20.22h246.03Z"/>
  <path class="cls-2" d="M5595.52,1312.17c0,35.97-21.38,53.93-64.04,53.93h-30.33v20.22h246.04v-20.22h-33.71c-42.71,0-64.03-17.96-64.03-53.93v-502.18h-13.48c-18.01,35.97-52.82,53.93-104.49,53.93h-30.33v20.22h60.66c22.44,0,33.71,10.12,33.71,30.33v397.71Z"/>
  <path class="cls-2" d="M1066.65,2593.28v-20.22h-33.7c-42.71,0-64.04-17.97-64.04-53.93v-502.18h-13.48c-18.01,35.96-52.82,53.93-104.48,53.93h-30.33v20.22h60.67c22.43,0,33.7,10.11,33.7,30.33v397.71c0,35.96-21.38,53.93-64.04,53.93h-30.33v20.22h246.03Z"/>
  <path class="cls-2" d="M1345.37,2054.02c-26.96-24.69-56.19-37.07-87.63-37.07s-60.67,12.38-87.63,37.07c-22.48,22.49-41.6,52.82-57.3,91-20.22,49.45-30.33,102.26-30.33,158.4s10.11,110.12,30.33,161.78c15.69,38.23,34.81,67.41,57.3,87.63,26.96,26.96,56.14,40.44,87.63,40.44s60.67-13.48,87.63-40.44c20.22-17.96,38.18-47.18,53.93-87.63,20.22-53.93,30.34-107.85,30.34-161.78,0-49.39-10.11-102.21-30.34-158.4-13.48-38.18-31.49-68.51-53.93-91ZM1308.3,2546.1c-15.74,13.48-32.6,20.22-50.55,20.22s-34.86-6.74-50.55-20.22c-40.45-40.44-60.67-121.34-60.67-242.67s20.22-198.85,60.67-239.29c15.69-13.48,32.54-20.22,50.55-20.22s34.81,6.74,50.55,20.22c38.18,38.23,57.3,117.97,57.3,239.29s-19.12,204.49-57.3,242.67Z"/>
  <path class="cls-2" d="M6997.41,2448.36h-20.22c-11.27,62.93-37.08,94.36-77.52,94.36h-198.85c11.22-29.17,82-106.69,212.33-232.55,51.67-49.4,77.52-99.95,77.52-151.67,0-40.44-13.48-74.14-40.45-101.11-26.96-26.96-66.3-40.45-117.97-40.45-47.18,0-87.63,15.74-121.32,47.18-24.75,24.75-37.08,57.3-37.08,97.74,0,18.02,4.47,31.5,13.48,40.45,6.74,6.74,16.85,10.11,30.33,10.11,22.43,0,33.7-11.22,33.7-33.71,0-11.21-3.37-20.22-10.1-26.96-9.01-8.95-13.48-20.22-13.48-33.7,0-20.22,6.74-37.08,20.22-50.56,20.23-17.96,46.03-26.96,77.52-26.96s56.14,9.01,74.14,26.96c22.43,20.23,33.7,52.82,33.7,97.74,0,58.46-37.07,123.6-111.22,195.48-85.41,83.15-138.18,146.09-158.4,188.74v43.81h313.45l20.22-144.92Z"/>
  <path class="cls-2" d="M7277.83,3685.44c-47.19,0-85.42,13.48-114.59,40.44-20.23,20.22-30.34,44.97-30.34,74.14,0,15.74,4.48,28.12,13.48,37.08,6.75,6.74,14.59,10.1,23.6,10.1,20.22,0,30.33-12.32,30.33-37.07,0-8.96-2.26-16.86-6.74-23.6-4.53-4.47-6.75-13.48-6.75-26.96,0-8.95,3.37-16.85,10.11-23.6,20.22-17.96,42.66-26.96,67.41-26.96,31.44,0,56.14,9.01,74.14,26.96,20.23,22.49,30.33,52.82,30.33,91,0,76.41-43.81,114.59-131.44,114.59v23.6c56.14,0,95.48,11.27,117.96,33.69,22.44,22.5,33.71,53.93,33.71,94.38,0,53.93-12.38,92.15-37.08,114.59-20.22,20.23-48.35,30.33-84.26,30.33-29.23,0-51.71-6.74-67.41-20.23-9.01-8.95-13.48-17.96-13.48-26.96,0-11.22,3.37-21.32,10.11-30.33,2.21-6.74,3.37-13.47,3.37-20.23,0-11.2-4.52-21.32-13.48-30.33-6.74-6.74-14.64-10.1-23.59-10.1s-18.01,4.52-26.96,13.47c-9.01,9.01-13.48,21.38-13.48,37.09,0,26.96,12.32,51.72,37.07,74.13,26.96,24.75,64.04,37.09,111.22,37.09,53.93,0,96.58-15.7,128.07-47.19,33.71-31.45,50.56-69.61,50.56-114.59,0-38.18-15.74-73-47.18-104.49-18.02-17.96-44.98-32.54-80.89-43.81,69.62-24.7,104.48-69.62,104.48-134.82,0-33.7-13.48-64.03-40.44-90.99-26.95-26.96-62.92-40.44-107.84-40.44Z"/>
  <path class="cls-2" d="M6600.94,5723.63v16.84h225.81v104.49c0,29.24-16.84,43.82-50.54,43.82h-37.09v20.21h222.44v-20.21h-30.33c-33.7,0-50.56-14.59-50.56-43.82v-104.49h91.01v-20.21h-91.01v-387.59h-33.7l-246.04,390.96ZM6826.75,5720.27h-195.48l192.11-303.34h3.37v303.34Z"/>
  <path class="cls-2" d="M5485.25,7092.14c26.94,24.75,61.76,37.09,104.47,37.09,51.67,0,93.23-15.7,124.71-47.19,38.18-35.91,57.3-81.99,57.3-138.18s-18.02-102.21-53.93-138.18c-26.96-26.96-57.3-40.44-90.99-40.44-44.98,0-88.8,23.6-131.45,70.77l13.47-232.55h242.67l10.1-50.56h-276.35l-16.86,316.81,30.33,3.39c35.91-49.4,73-74.16,111.22-74.16,24.69,0,46.04,9.01,64.03,26.96,26.96,26.96,40.46,68.55,40.46,124.69s-13.49,100-40.46,124.71c-20.21,20.23-47.17,30.33-80.89,30.33s-58.45-6.74-74.13-20.23c-11.28-11.22-16.86-22.44-16.86-33.7,0-8.95,3.37-17.96,10.1-26.96,6.76-6.74,10.12-16.86,10.12-30.33,0-11.22-3.37-20.23-10.12-26.96-6.74-6.74-14.63-10.1-23.58-10.1-11.28,0-21.38,4.52-30.33,13.47-9.01,9.01-13.49,21.38-13.49,37.07,0,31.51,13.49,59.57,40.45,84.26Z"/>
  <path class="cls-2" d="M3988.76,7550.46c40.45,0,75.26-14.59,104.49-43.82,35.91-33.7,53.93-85.35,53.93-155.03,0-53.93-18.02-97.75-53.93-131.45-24.75-24.69-53.93-37.07-87.63-37.07-56.19,0-103.38,35.95-141.56,107.83,0-143.77,20.23-231.39,60.67-262.88,24.7-20.23,52.76-30.33,84.26-30.33,15.69,0,26.96,3.37,33.7,10.1,4.48,2.27,6.75,9.01,6.75,20.23-2.26,9.01-3.37,18.02-3.37,26.96,0,22.48,11.21,33.7,33.7,33.7,24.7,0,37.08-13.47,37.08-40.44,0-15.7-7.9-31.45-23.6-47.19-20.23-17.96-44.97-26.96-74.14-26.96-49.45,0-92.16,14.65-128.08,43.82-60.66,49.44-90.99,139.34-90.99,269.62,0,101.12,23.6,174.16,70.78,219.08,29.18,29.24,68.51,43.82,117.96,43.82ZM3864.05,7341.48c35.92-83.1,79.73-124.69,131.45-124.69,22.43,0,42.66,9.01,60.66,26.96,22.44,22.48,33.71,58.45,33.71,107.85,0,78.68-12.38,129.22-37.08,151.66-15.74,15.74-35.97,23.59-60.66,23.59-29.23,0-53.93-7.85-74.15-23.59-35.96-26.96-53.93-80.89-53.93-161.78Z"/>
  <path class="cls-2" d="M2196.93,6552.89l-23.59,141.55,20.22,3.37c11.21-62.87,41.55-94.36,91-94.36h168.52c-69.67,125.87-113.49,211.22-131.44,256.14-33.7,89.9-50.55,161.78-50.55,215.71,0,20.23,3.37,33.7,10.11,40.44,8.95,9.01,19.07,13.49,30.34,13.49s20.22-3.37,26.96-10.12c6.74-6.74,10.11-19.05,10.11-37.07-2.27-47.19-3.37-79.73-3.37-97.73,0-38.18,6.74-79.74,20.22-124.71,24.7-85.35,69.62-179.74,134.82-283.11v-23.6h-303.33Z"/>
  <path class="cls-2" d="M1115.93,5332.67c-51.71,0-91,13.47-117.96,40.44-31.49,29.23-47.19,60.66-47.19,94.36,0,56.2,32.55,101.12,97.74,134.82-74.14,49.46-111.22,104.49-111.22,165.15,0,35.97,15.69,68.57,47.19,97.75,31.44,29.22,72.99,43.8,124.7,43.8s94.37-15.68,128.07-47.17c29.18-29.18,43.82-62.9,43.82-101.12,0-62.88-37.08-115.71-111.22-158.41,69.62-38.18,104.48-83.1,104.48-134.82,0-35.91-12.38-66.24-37.08-90.99-31.49-29.18-71.93-43.8-121.33-43.8ZM1035.04,5528.15c-24.75-22.44-37.07-43.82-37.07-64.05,0-33.7,10.11-60.66,30.33-80.89,17.96-17.96,47.19-26.96,87.63-26.96,33.7,0,59.51,9.01,77.52,26.96,22.43,20.23,33.7,49.46,33.7,87.65,0,51.72-26.96,90.99-80.89,117.96-49.45-17.96-86.52-38.18-111.22-60.66ZM1193.44,5689.92c24.7,24.75,37.07,49.46,37.07,74.15,0,42.71-11.27,74.16-33.7,94.36-18.01,18.02-47.19,26.96-87.63,26.96-38.23,0-67.41-10.1-87.63-30.33-24.75-22.42-37.07-51.66-37.07-87.63,0-62.87,28.07-113.43,84.26-151.66,53.93,20.21,95.48,44.96,124.7,74.13Z"/>
  <path class="cls-2" d="M716.5,4201.11c-22.49,24.75-48.35,37.07-77.52,37.07-15.75,0-25.86-2.21-30.34-6.74-6.74-6.76-10.11-17.96-10.11-33.72,0-20.21-3.37-33.7-10.11-40.44-6.74-6.74-14.64-10.1-23.59-10.1-11.27,0-19.12,2.25-23.59,6.74-9.01,9.01-13.48,20.23-13.48,33.7,0,15.74,7.85,31.49,23.59,47.19,20.22,18.02,48.29,26.96,84.26,26.96,44.92,0,85.36-17.96,121.34-53.93,58.4-60.66,87.63-149.4,87.63-266.26,0-94.37-22.48-165.15-67.41-212.33-29.23-29.18-68.56-43.81-117.96-43.81-40.45,0-75.31,13.48-104.48,40.44-38.23,33.7-57.3,80.88-57.3,141.55,0,65.2,15.69,113.48,47.19,144.93,26.96,26.96,59.51,40.44,97.74,40.44s71.88-15.68,101.11-47.17c15.69-17.98,28.06-38.19,37.07-60.68-4.53,128.08-25.86,213.49-64.04,256.16ZM726.61,3982.03c-26.96,26.96-52.82,40.44-77.52,40.44-20.22,0-40.44-10.1-60.67-30.33-22.48-22.43-33.7-65.14-33.7-128.07s14.58-107.85,43.81-134.82c13.48-13.48,33.7-20.23,60.67-20.23,33.7,0,59.51,9.01,77.52,26.96,29.17,26.96,43.81,75.31,43.81,144.93,0,31.49-18.01,65.2-53.93,101.11Z"/>
</svg>